<svg width="1200" height="620" viewBox="0 0 1200 620" fill="none" xmlns="http://www.w3.org/2000/svg" role="img" aria-labelledby="title desc">
  <title id="title">Romulo OS terminal dashboard</title>
  <desc id="desc">A static terminal-inspired profile shell. The README action injects only text placeholders from GitHub activity.</desc>
  <defs>
    <linearGradient id="bg" x1="0" y1="0" x2="1200" y2="620" gradientUnits="userSpaceOnUse">
      <stop stop-color="#06070D"/>
      <stop offset="0.48" stop-color="#09111F"/>
      <stop offset="1" stop-color="#13081B"/>
    </linearGradient>
    <radialGradient id="glowCyan" cx="0" cy="0" r="1" gradientUnits="userSpaceOnUse" gradientTransform="translate(990 110) rotate(135) scale(620 360)">
      <stop stop-color="#00F5D4" stop-opacity="0.32"/>
      <stop offset="1" stop-color="#00F5D4" stop-opacity="0"/>
    </radialGradient>
    <radialGradient id="glowPink" cx="0" cy="0" r="1" gradientUnits="userSpaceOnUse" gradientTransform="translate(170 500) rotate(-25) scale(520 280)">
      <stop stop-color="#FF4FD8" stop-opacity="0.28"/>
      <stop offset="1" stop-color="#FF4FD8" stop-opacity="0"/>
    </radialGradient>
    <filter id="softShadow" x="-20%" y="-20%" width="140%" height="140%">
      <feDropShadow dx="0" dy="24" stdDeviation="28" flood-color="#000000" flood-opacity="0.45"/>
    </filter>
    <style>
      .mono { font-family: ui-monospace, SFMono-Regular, Menlo, Monaco, Consolas, 'Liberation Mono', 'Courier New', monospace; }
      .muted { fill: #7F8EA3; }
      .green { fill: #6CFF8D; }
      .cyan { fill: #00F5D4; }
      .pink { fill: #FF4FD8; }
      .amber { fill: #FFD166; }
      .white { fill: #F4F7FB; }
      .line { stroke: #1F3348; stroke-width: 1; }
    </style>
    <pattern id="grid" width="42" height="42" patternUnits="userSpaceOnUse">
      <path d="M 42 0 L 0 0 0 42" fill="none" stroke="#18263A" stroke-width="1" opacity="0.35"/>
    </pattern>
  </defs>

  <rect width="1200" height="620" rx="34" fill="url(#bg)"/>
  <rect width="1200" height="620" rx="34" fill="url(#grid)"/>
  <rect width="1200" height="620" rx="34" fill="url(#glowCyan)"/>
  <rect width="1200" height="620" rx="34" fill="url(#glowPink)"/>

  <g filter="url(#softShadow)">
    <rect x="70" y="62" width="1060" height="496" rx="24" fill="#08111D" stroke="#21344C" stroke-width="2"/>
    <rect x="70" y="62" width="1060" height="54" rx="24" fill="#101C2B"/>
    <path d="M70 92C70 75.4315 83.4315 62 100 62H1100C1116.57 62 1130 75.4315 1130 92V116H70V92Z" fill="#101C2B"/>
    <circle cx="104" cy="89" r="8" fill="#FF5F57"/>
    <circle cx="130" cy="89" r="8" fill="#FFBD2E"/>
    <circle cx="156" cy="89" r="8" fill="#28C840"/>
    <text x="600" y="95" text-anchor="middle" class="mono muted" font-size="18">romulo@miaulabs: ~/profile --sync-github</text>
  </g>

  <g class="mono">
    <text x="108" y="156" class="green" font-size="22">$ ./romulo-os --status</text>
    <text x="108" y="214" class="white" font-size="58" font-weight="800">ROMULO OS</text>
    <text x="108" y="250" class="muted" font-size="20">Open-source dev, AI video, finance, cloud t…</text>

    <text x="108" y="305" class="cyan" font-size="20">system.identity</text>
    <text x="108" y="337" class="white" font-size="23">Rômulo Gatto — Brazil</text>
    <text x="108" y="369" class="muted" font-size="18">groq wrapup + GitHub signals → live README</text>

    <text x="108" y="418" class="cyan" font-size="20">runtime.profile</text>
    <text x="108" y="450" class="white" font-size="20">github-signals.service</text>
    <text x="430" y="450" class="green" font-size="20">online</text>
    <text x="108" y="481" class="white" font-size="20">oss-wrapup.service</text>
    <text x="430" y="481" class="green" font-size="20">online</text>
    <text x="108" y="512" class="white" font-size="20">readme-render.service</text>
    <text x="430" y="512" class="green" font-size="20">online</text>
  </g>

  <g transform="translate(650 154)">
    <rect width="410" height="320" rx="18" fill="#0D1726" stroke="#1E334A"/>
    <text x="28" y="48" class="mono amber" font-size="20">system.log</text>
    <line x1="28" y1="70" x2="382" y2="70" class="line"/>
    <text x="28" y="112" class="mono muted" font-size="17">[ok]</text>
    <text x="84" y="112" class="mono white" font-size="17">github signals loaded</text>
    <text x="28" y="152" class="mono muted" font-size="17">[ok]</text>
    <text x="84" y="152" class="mono white" font-size="17">oss wrapup generated</text>
    <text x="28" y="192" class="mono muted" font-size="17">[ok]</text>
    <text x="84" y="192" class="mono white" font-size="17">readme render complete</text>
  </g>

  <g transform="translate(660 512)" class="mono">
    <text x="0" y="0" class="muted" font-size="18">synced</text>
    <text x="78" y="0" class="pink" font-size="18">2026-06-29 · auto-rendered</text>
  </g>
</svg>
